<svg xmlns="http://www.w3.org/2000/svg" width="805" height="600"><rect width="805" height="600" x="0" y="0" fill="#FFFFFF" id="backgorund"/><g transform="translate(10,10)" id="visualization"><g><rect x="0" y="0" height="0.21620297134950306" width="5" fill="black"><title>VICHADA: 4950</title></rect><rect x="0" y="5.216202971349503" height="0.3422121778834821" width="5" fill="black"><title>GUAVIARE: 7835</title></rect><rect x="0" y="10.558415149232985" height="0.6502686540305831" width="5" fill="black"><title>SAN ANDRES, PROVIDENCIA Y SANTA CATALINA: 14888</title></rect><rect x="0" y="16.20868380326357" height="0.997765793435974" width="5" fill="black"><title>BUENAVENTURA: 22844</title></rect><rect x="0" y="22.206449596699542" height="1.3026774990906915" width="5" fill="black"><title>ARAUCA: 29825</title></rect><rect x="0" y="28.509127095790234" height="1.3055602053754" width="5" fill="black"><title>VAUPES: 29891</title></rect><rect x="0" y="34.814687301165634" height="1.450350680127599" width="5" fill="black"><title>PUTUMAYO: 33206</title></rect><rect x="0" y="41.26503798129323" height="1.6487332853537282" width="5" fill="black"><title>CHOCO: 37748</title></rect><rect x="0" y="47.91377126664696" height="2.1833442690543734" width="5" fill="black"><title>GUAINIA: 49988</title></rect><rect x="0" y="55.097115535701334" height="2.3989357572525307" width="5" fill="black"><title>CAQUETA: 54924</title></rect><rect x="0" y="62.496051292953865" height="2.4526589198302986" width="5" fill="black"><title>CASANARE: 56154</title></rect><rect x="0" y="69.94871021278416" height="3.8206340840053485" width="5" fill="black"><title>SANTA MARTA: 87474</title></rect><rect x="0" y="78.76934429678951" height="4.129826171719117" width="5" fill="black"><title>MAGDALENA: 94553</title></rect><rect x="0" y="87.89917046850863" height="4.695098667720174" width="5" fill="black"><title>LA_GUAJIRA: 107495</title></rect><rect x="0" y="97.5942691362288" height="5.213155928967922" width="5" fill="black"><title>AMAZONAS: 119356</title></rect><rect x="0" y="107.80742506519672" height="5.54658895589364" width="5" fill="black"><title>QUINDIO: 126990</title></rect><rect x="0" y="118.35401402109036" height="6.3555811650522855" width="5" fill="black"><title>META: 145512</title></rect><rect x="0" y="129.70959518614265" height="6.964749415842505" width="5" fill="black"><title>SUCRE: 159459</title></rect><rect x="0" y="141.67434460198515" height="7.065163684758147" width="5" fill="black"><title>BOLIVAR: 161758</title></rect><rect x="0" y="153.7395082867433" height="7.219912599402875" width="5" fill="black"><title>ATLANTICO: 165301</title></rect><rect x="0" y="165.95942088614618" height="7.430437512918957" width="5" fill="black"><title>HUILA: 170121</title></rect><rect x="0" y="178.38985839906513" height="7.804752556245262" width="5" fill="black"><title>CESAR: 178691</title></rect><rect x="0" y="191.1946109553104" height="8.251877771943214" width="5" fill="black"><title>CAUCA: 188928</title></rect><rect x="0" y="204.4464887272536" height="8.986618455587916" width="5" fill="black"><title>CARTAGENA: 205750</title></rect><rect x="0" y="218.43310718284152" height="9.191377956534666" width="5" fill="black"><title>RISARALDA: 210438</title></rect><rect x="0" y="232.6244851393762" height="9.536953291750308" width="5" fill="black"><title>CALDAS: 218350</title></rect><rect x="0" y="247.1614384311265" height="10.392680284614812" width="5" fill="black"><title>BOYACA: 237942</title></rect><rect x="0" y="262.5541187157413" height="10.813555402175211" width="5" fill="black"><title>NORTE DE SANTANDER: 247578</title></rect><rect x="0" y="278.3676741179165" height="10.864570567940063" width="5" fill="black"><title>CORDOBA: 248746</title></rect><rect x="0" y="294.2322446858566" height="11.727373294412416" width="5" fill="black"><title>TOLIMA: 268500</title></rect><rect x="0" y="310.959617980269" height="12.670760764751378" width="5" fill="black"><title>NARIÑO: 290099</title></rect><rect x="0" y="328.6303787450204" height="15.280658209199544" width="5" fill="black"><title>BARRANQUILLA: 349853</title></rect><rect x="0" y="348.9110369542199" height="18.855519743753632" width="5" fill="black"><title>CUNDINAMARCA: 431700</title></rect><rect x="0" y="372.76655669797356" height="19.12780445555012" width="5" fill="black"><title>SANTANDER: 437934</title></rect><rect x="390" y="85" height="25.56174281870365" width="5" fill="black"><title>Febrero: 585240</title></rect><rect x="0" y="396.8943611535237" height="40.706083962533114" width="5" fill="black"><title>VALLE_DEL_CAUCA: 931972</title></rect><rect x="780" y="85" height="50.52597924385958" width="5" fill="black"><title>ASTRAZENECA: 1156800</title></rect><rect x="0" y="442.6004451160568" height="56.53799423262194" width="5" fill="black"><title>ANTIOQUIA: 1294446</title></rect><rect x="0" y="504.13843934867873" height="75.86156065132127" width="5" fill="black"><title>BOGOTA D.C.: 1736862</title></rect><rect x="780" y="140.52597924385958" height="126.12102059595367" width="5" fill="black"><title>PFIZER: 2887560</title></rect><rect x="390" y="115.56174281870365" height="133.82920249166284" width="5" fill="black"><title>Abril: 3064040</title></rect><rect x="780" y="271.64699983981325" height="223.35300016018675" width="5" fill="black"><title>SINOVAC: 5113701</title></rect><rect x="390" y="254.39094531036648" height="240.60905468963352" width="5" fill="black"><title>Marzo: 5508781</title></rect></g><g fill="none" stroke-opacity="1"><g style="mix-blend-mode: multiply;"><path d="M5,444.09311916572733C197.5,444.09311916572733,197.5,105.50272432122914,390,105.50272432122914" stroke="#9467bd" stroke-width="2.985348099341116"/><title>ANTIOQUIA → Febrero: 68350</title></g><g style="mix-blend-mode: multiply;"><path d="M5,22.252572897254105C197.5,22.252572897254105,197.5,85.19191835476963,390,85.19191835476963" stroke="#8c564b" stroke-width="1"/><title>ARAUCA → Febrero: 2112</title></g><g style="mix-blend-mode: multiply;"><path d="M5,153.9138683395973C197.5,153.9138683395973,197.5,91.92880294202014,390,91.92880294202014" stroke="#e377c2" stroke-width="1"/><title>ATLANTICO → Febrero: 7984</title></g><g style="mix-blend-mode: multiply;"><path d="M5,329.0095419761891C197.5,329.0095419761891,197.5,99.11464719442247,390,99.11464719442247" stroke="#7f7f7f" stroke-width="1"/><title>BARRANQUILLA → Febrero: 17362</title></g><g style="mix-blend-mode: multiply;"><path d="M5,505.92161157258073C197.5,505.92161157258073,197.5,108.77857059480168,390,108.77857059480168" stroke="#bcbd22" stroke-width="3.566344447803962"/><title>BOGOTA D.C. → Febrero: 81652</title></g><g style="mix-blend-mode: multiply;"><path d="M5,141.8630745088945C197.5,141.8630745088945,197.5,91.56571298225683,390,91.56571298225683" stroke="#17becf" stroke-width="1"/><title>BOLIVAR → Febrero: 8642</title></g><g style="mix-blend-mode: multiply;"><path d="M5,204.64242539987458C197.5,204.64242539987458,197.5,93.90948422378929,390,93.90948422378929" stroke="#cccccc" stroke-width="1"/><title>CARTAGENA → Febrero: 8972</title></g><g style="mix-blend-mode: multiply;"><path d="M5,247.5227376188039C197.5,247.5227376188039,197.5,95.32017585381882,390,95.32017585381882" stroke="#cccccc" stroke-width="1"/><title>BOYACA → Febrero: 16544</title></g><g style="mix-blend-mode: multiply;"><path d="M5,232.86265782680425C197.5,232.86265782680425,197.5,94.72070397871339,390,94.72070397871339" stroke="#cccccc" stroke-width="1"/><title>CALDAS → Febrero: 10906</title></g><g style="mix-blend-mode: multiply;"><path d="M5,55.18617368895015C197.5,55.18617368895015,197.5,87.09507230842861,390,87.09507230842861" stroke="#cccccc" stroke-width="1"/><title>CAQUETA → Febrero: 4078</title></g><g style="mix-blend-mode: multiply;"><path d="M5,62.59576672398233C197.5,62.59576672398233,197.5,87.2838458927059,390,87.2838458927059" stroke="#cccccc" stroke-width="1"/><title>CASANARE → Febrero: 4566</title></g><g style="mix-blend-mode: multiply;"><path d="M5,191.47755294488658C197.5,191.47755294488658,197.5,93.43060556159212,390,93.43060556159212" stroke="#cccccc" stroke-width="1"/><title>CAUCA → Febrero: 12956</title></g><g style="mix-blend-mode: multiply;"><path d="M5,178.6061050477826C197.5,178.6061050477826,197.5,92.9314169232985,390,92.9314169232985" stroke="#cccccc" stroke-width="1"/><title>CESAR → Febrero: 9902</title></g><g style="mix-blend-mode: multiply;"><path d="M5,41.31941630439023C197.5,41.31941630439023,197.5,85.86826239746601,390,85.86826239746601" stroke="#cccccc" stroke-width="1"/><title>CHOCO → Febrero: 2490</title></g><g style="mix-blend-mode: multiply;"><path d="M5,278.7527774711263C197.5,278.7527774711263,197.5,96.75851525776034,390,96.75851525776034" stroke="#cccccc" stroke-width="1"/><title>CORDOBA → Febrero: 17634</title></g><g style="mix-blend-mode: multiply;"><path d="M5,349.48840808114295C197.5,349.48840808114295,197.5,100.07118155251422,390,100.07118155251422" stroke="#cccccc" stroke-width="1.1547422538460925"/><title>CUNDINAMARCA → Febrero: 26438</title></g><g style="mix-blend-mode: multiply;"><path d="M5,5.245728872083294C197.5,5.245728872083294,197.5,85.05005426367,390,85.05005426367" stroke="#cccccc" stroke-width="1"/><title>GUAVIARE → Febrero: 1352</title></g><g style="mix-blend-mode: multiply;"><path d="M5,166.26542452599963C197.5,166.26542452599963,197.5,92.40916663472758,390,92.40916663472758" stroke="#cccccc" stroke-width="1"/><title>HUILA → Febrero: 14012</title></g><g style="mix-blend-mode: multiply;"><path d="M5,88.07776722605371C197.5,88.07776722605371,197.5,88.02671056678919,390,88.02671056678919" stroke="#cccccc" stroke-width="1"/><title>LA_GUAJIRA → Febrero: 8178</title></g><g style="mix-blend-mode: multiply;"><path d="M5,78.90972335737887C197.5,78.90972335737887,197.5,87.70773474865476,390,87.70773474865476" stroke="#cccccc" stroke-width="1"/><title>MAGDALENA → Febrero: 6428</title></g><g style="mix-blend-mode: multiply;"><path d="M5,70.04060739494969C197.5,70.04060739494969,197.5,87.47545850589988,390,87.47545850589988" stroke="#cccccc" stroke-width="1"/><title>SANTA MARTA → Febrero: 4208</title></g><g style="mix-blend-mode: multiply;"><path d="M5,118.57231350610144C197.5,118.57231350610144,197.5,90.67735899553409,390,90.67735899553409" stroke="#cccccc" stroke-width="1"/><title>META → Febrero: 9996</title></g><g style="mix-blend-mode: multiply;"><path d="M5,311.3994490755194C197.5,311.3994490755194,197.5,98.29565286800337,390,98.29565286800337" stroke="#cccccc" stroke-width="1"/><title>NARIÑO → Febrero: 20140</title></g><g style="mix-blend-mode: multiply;"><path d="M5,262.90008714726844C197.5,262.90008714726844,197.5,96.02744347302337,390,96.02744347302337" stroke="#cccccc" stroke-width="1"/><title>NORTE DE SANTANDER → Febrero: 15842</title></g><g style="mix-blend-mode: multiply;"><path d="M5,34.8749620689358C197.5,34.8749620689358,197.5,85.75360930659885,390,85.75360930659885" stroke="#cccccc" stroke-width="1"/><title>PUTUMAYO → Febrero: 2760</title></g><g style="mix-blend-mode: multiply;"><path d="M5,107.94103413375392C197.5,107.94103413375392,197.5,90.32545044196581,390,90.32545044196581" stroke="#cccccc" stroke-width="1"/><title>QUINDIO → Febrero: 6118</title></g><g style="mix-blend-mode: multiply;"><path d="M5,218.62166238027905C197.5,218.62166238027905,197.5,94.2939760938478,390,94.2939760938478" stroke="#cccccc" stroke-width="1"/><title>RISARALDA → Febrero: 8634</title></g><g style="mix-blend-mode: multiply;"><path d="M5,10.565665592312584C197.5,10.565665592312584,197.5,85.08683060748339,390,85.08683060748339" stroke="#cccccc" stroke-width="1"/><title>SAN ANDRES, PROVIDENCIA Y SANTA CATALINA → Febrero: 332</title></g><g style="mix-blend-mode: multiply;"><path d="M5,373.2793726750674C197.5,373.2793726750674,197.5,101.16136865653111,390,101.16136865653111" stroke="#cccccc" stroke-width="1.0256319541876824"/><title>SANTANDER → Febrero: 23482</title></g><g style="mix-blend-mode: multiply;"><path d="M5,129.95025748354382C197.5,129.95025748354382,197.5,91.13632077794632,390,91.13632077794632" stroke="#cccccc" stroke-width="1"/><title>SUCRE → Febrero: 11020</title></g><g style="mix-blend-mode: multiply;"><path d="M5,294.588346266748C197.5,294.588346266748,197.5,97.49972019186157,390,97.49972019186157" stroke="#cccccc" stroke-width="1"/><title>TOLIMA → Febrero: 16306</title></g><g style="mix-blend-mode: multiply;"><path d="M5,398.06229397249047C197.5,398.06229397249047,197.5,102.84211745259176,390,102.84211745259176" stroke="#cccccc" stroke-width="2.3358656379336193"/><title>VALLE_DEL_CAUCA → Febrero: 53480</title></g><g style="mix-blend-mode: multiply;"><path d="M5,16.23454080508961C197.5,16.23454080508961,197.5,85.11993805238903,390,85.11993805238903" stroke="#cccccc" stroke-width="1"/><title>BUENAVENTURA → Febrero: 1184</title></g><g style="mix-blend-mode: multiply;"><path d="M5,0.010264181468107713C197.5,0.010264181468107713,197.5,85.0102641814681,390,85.0102641814681" stroke="#cccccc" stroke-width="1"/><title>VICHADA → Febrero: 470</title></g><g style="mix-blend-mode: multiply;"><path d="M5,98.58753616076598C197.5,98.58753616076598,197.5,89.19857434887143,390,89.19857434887143" stroke="#d62728" stroke-width="1.986534049074362"/><title>AMAZONAS → Febrero: 45482</title></g><g style="mix-blend-mode: multiply;"><path d="M5,48.455457983955355C197.5,48.455457983955355,197.5,86.4643274378714,390,86.4643274378714" stroke="#cccccc" stroke-width="1.0833734346167818"/><title>GUAINIA → Febrero: 24804</title></g><g style="mix-blend-mode: multiply;"><path d="M5,28.73677353754248C197.5,28.73677353754248,197.5,85.46568809707644,390,85.46568809707644" stroke="#cccccc" stroke-width="1"/><title>VAUPES → Febrero: 10424</title></g><g style="mix-blend-mode: multiply;"><path d="M5,482.3067322875443C197.5,482.3067322875443,197.5,432.1811347402034,390,432.1811347402034" stroke="#9467bd" stroke-width="33.6634141222689"/><title>ANTIOQUIA → Marzo: 770729</title></g><g style="mix-blend-mode: multiply;"><path d="M5,23.17851125909729C197.5,23.17851125909729,197.5,256.2010009542413,390,256.2010009542413" stroke="#8c564b" stroke-width="1"/><title>ARAUCA → Marzo: 15139</title></g><g style="mix-blend-mode: multiply;"><path d="M5,158.79453030505044C197.5,158.79453030505044,197.5,291.0975145284576,390,291.0975145284576" stroke="#e377c2" stroke-width="4.329781162191429"/><title>ATLANTICO → Marzo: 99131</title></g><g style="mix-blend-mode: multiply;"><path d="M5,339.2222715048524C197.5,339.2222715048524,197.5,361.3802741650226,390,361.3802741650226" stroke="#7f7f7f" stroke-width="9.377530898735005"/><title>BARRANQUILLA → Marzo: 214700</title></g><g style="mix-blend-mode: multiply;"><path d="M5,557.0064209006688C197.5,557.0064209006688,197.5,472.00642090066896,390,472.00642090066896" stroke="#bcbd22" stroke-width="45.98715819866236"/><title>BOGOTA D.C. → Marzo: 1052883</title></g><g style="mix-blend-mode: multiply;"><path d="M5,210.9092759919377C197.5,210.9092759919377,197.5,308.6021806362723,390,308.6021806362723" stroke="#cccccc" stroke-width="5.047662381807677"/><title>CARTAGENA → Marzo: 115567</title></g><g style="mix-blend-mode: multiply;"><path d="M5,254.26123826866854C197.5,254.26123826866854,197.5,326.24375345392446,390,326.24375345392446" stroke="#cccccc" stroke-width="6.585760894145605"/><title>BOYACA → Marzo: 150782</title></g><g style="mix-blend-mode: multiply;"><path d="M5,239.1989554339069C197.5,239.1989554339069,197.5,319.98839000963204,390,319.98839000963204" stroke="#cccccc" stroke-width="5.924965994439216"/><title>CALDAS → Marzo: 135653</title></g><g style="mix-blend-mode: multiply;"><path d="M5,56.8182440584312C197.5,56.8182440584312,197.5,260.98144519893464,390,260.98144519893464" stroke="#cccccc" stroke-width="1.355614469045358"/><title>CAQUETA → Marzo: 31037</title></g><g style="mix-blend-mode: multiply;"><path d="M5,64.21693959016001C197.5,64.21693959016001,197.5,262.39102305608145,390,262.39102305608145" stroke="#cccccc" stroke-width="1.4635412452483119"/><title>CASANARE → Marzo: 33508</title></g><g style="mix-blend-mode: multiply;"><path d="M5,197.39432943283526C197.5,197.39432943283526,197.5,304.0261901509502,390,304.0261901509502" stroke="#cccccc" stroke-width="4.104318588836654"/><title>CAUCA → Marzo: 93969</title></g><g style="mix-blend-mode: multiply;"><path d="M5,183.865471632041C197.5,183.865471632041,197.5,299.64489153326247,390,299.64489153326247" stroke="#cccccc" stroke-width="4.658278646538825"/><title>CESAR → Marzo: 106652</title></g><g style="mix-blend-mode: multiply;"><path d="M5,42.393639330421614C197.5,42.393639330421614,197.5,258.68353519374904,390,258.68353519374904" stroke="#cccccc" stroke-width="1.0402638724507294"/><title>CHOCO → Marzo: 23817</title></g><g style="mix-blend-mode: multiply;"><path d="M5,286.3979984409364C197.5,286.3979984409364,197.5,338.37691133527073,390,338.37691133527073" stroke="#cccccc" stroke-width="5.6684924898403715"/><title>CORDOBA → Marzo: 129781</title></g><g style="mix-blend-mode: multiply;"><path d="M5,361.66091927101166C197.5,361.66091927101166,197.5,372.174677041352,390,372.174677041352" stroke="#cccccc" stroke-width="12.211274853923772"/><title>CUNDINAMARCA → Marzo: 279579</title></g><g style="mix-blend-mode: multiply;"><path d="M5,5.460315780818669C197.5,5.460315780818669,197.5,254.6257985178304,390,254.6257985178304" stroke="#cccccc" stroke-width="1"/><title>GUAVIARE → Marzo: 4492</title></g><g style="mix-blend-mode: multiply;"><path d="M5,171.3631848488453C197.5,171.3631848488453,197.5,295.28907865977317,390,295.28907865977317" stroke="#cccccc" stroke-width="4.053347100439711"/><title>HUILA → Marzo: 92802</title></g><g style="mix-blend-mode: multiply;"><path d="M5,91.2344616398603C197.5,91.2344616398603,197.5,268.9014404905144,390,268.9014404905144" stroke="#cccccc" stroke-width="2.7196149927369997"/><title>LA_GUAJIRA → Marzo: 62266</title></g><g style="mix-blend-mode: multiply;"><path d="M5,81.8143556807495C197.5,81.8143556807495,197.5,266.4568182063868,390,266.4568182063868" stroke="#cccccc" stroke-width="2.1696295755182238"/><title>MAGDALENA → Marzo: 49674</title></g><g style="mix-blend-mode: multiply;"><path d="M5,72.64473942682848C197.5,72.64473942682848,197.5,264.24739854866664,390,264.24739854866664" stroke="#cccccc" stroke-width="2.2492097399220206"/><title>SANTA MARTA → Marzo: 51496</title></g><g style="mix-blend-mode: multiply;"><path d="M5,122.7938403118303C197.5,122.7938403118303,197.5,278.7942114602644,390,278.7942114602644" stroke="#cccccc" stroke-width="3.831509748624736"/><title>META → Marzo: 87723</title></g><g style="mix-blend-mode: multiply;"><path d="M5,319.4827977232299C197.5,319.4827977232299,197.5,352.5439276938646,390,352.5439276938646" stroke="#cccccc" stroke-width="8.29516204358106"/><title>NARIÑO → Marzo: 189919</title></g><g style="mix-blend-mode: multiply;"><path d="M5,270.3646585232399C197.5,270.3646585232399,197.5,332.5396494956739,390,332.5396494956739" stroke="#cccccc" stroke-width="6.006031189353292"/><title>NORTE DE SANTANDER → Marzo: 137509</title></g><g style="mix-blend-mode: multiply;"><path d="M5,35.87427840893397C197.5,35.87427840893397,197.5,257.77264368516444,390,257.77264368516444" stroke="#cccccc" stroke-width="1"/><title>PUTUMAYO → Marzo: 17893</title></g><g style="mix-blend-mode: multiply;"><path d="M5,111.65872066150253C197.5,111.65872066150253,197.5,275.1831632263643,390,275.1831632263643" stroke="#cccccc" stroke-width="3.3905867191755985"/><title>QUINDIO → Marzo: 77628</title></g><g style="mix-blend-mode: multiply;"><path d="M5,224.6745375467581C197.5,224.6745375467581,197.5,314.0759594197943,390,314.0759594197943" stroke="#cccccc" stroke-width="5.8998951852362636"/><title>RISARALDA → Marzo: 135079</title></g><g style="mix-blend-mode: multiply;"><path d="M5,10.928711874707954C197.5,10.928711874707954,197.5,255.00386981480034,390,255.00386981480034" stroke="#cccccc" stroke-width="1"/><title>SAN ANDRES, PROVIDENCIA Y SANTA CATALINA → Marzo: 12820</title></g><g style="mix-blend-mode: multiply;"><path d="M5,385.909382455522C197.5,385.909382455522,197.5,384.2652931663156,390,384.2652931663156" stroke="#cccccc" stroke-width="11.969957396003368"/><title>SANTANDER → Marzo: 274054</title></g><g style="mix-blend-mode: multiply;"><path d="M5,134.81659327230958C197.5,134.81659327230958,197.5,282.56771766425237,390,282.56771766425237" stroke="#cccccc" stroke-width="3.715502659351144"/><title>SUCRE → Marzo: 85067</title></g><g style="mix-blend-mode: multiply;"><path d="M5,302.3670234343275C197.5,302.3670234343275,197.5,344.8037521261325,390,344.8037521261325" stroke="#cccccc" stroke-width="7.185189091883096"/><title>TOLIMA → Marzo: 164506</title></g><g style="mix-blend-mode: multiply;"><path d="M5,425.050867208681C197.5,425.050867208681,197.5,402.7998497716931,390,402.7998497716931" stroke="#cccccc" stroke-width="25.099155814751615"/><title>VALLE_DEL_CAUCA → Marzo: 574649</title></g><g style="mix-blend-mode: multiply;"><path d="M5,16.913177909603327C197.5,16.913177909603327,197.5,255.5771134304522,390,255.5771134304522" stroke="#cccccc" stroke-width="1"/><title>BUENAVENTURA → Marzo: 13429</title></g><g style="mix-blend-mode: multiply;"><path d="M5,0.14782605182472577C197.5,0.14782605182472577,197.5,254.45932222989126,390,254.45932222989126" stroke="#cccccc" stroke-width="1"/><title>VICHADA → Marzo: 3131</title></g><g style="mix-blend-mode: multiply;"><path d="M5,101.19411412524995C197.5,101.19411412524995,197.5,271.87455892682965,390,271.87455892682965" stroke="#d62728" stroke-width="3.226621879893571"/><title>AMAZONAS → Marzo: 73874</title></g><g style="mix-blend-mode: multiply;"><path d="M5,146.48593081002636C197.5,146.48593081002636,197.5,286.6790464706449,390,286.6790464706449" stroke="#17becf" stroke-width="4.50715495343392"/><title>BOLIVAR → Marzo: 103192</title></g><g style="mix-blend-mode: multiply;"><path d="M5,49.54713011848252C197.5,49.54713011848252,197.5,259.75365254719316,390,259.75365254719316" stroke="#cccccc" stroke-width="1.0999708344375518"/><title>GUAINIA → Marzo: 25184</title></g><g style="mix-blend-mode: multiply;"><path d="M5,29.389553640230154C197.5,29.389553640230154,197.5,256.9567504518697,390,256.9567504518697" stroke="#cccccc" stroke-width="1"/><title>VAUPES → Marzo: 19467</title></g><g style="mix-blend-mode: multiply;"><path d="M5,455.5304092209039C197.5,455.5304092209039,197.5,213.13827130000553,390,213.13827130000553" stroke="#9467bd" stroke-width="19.889232011011938"/><title>ANTIOQUIA → Abril: 455367</title></g><g style="mix-blend-mode: multiply;"><path d="M5,22.573295810106508C197.5,22.573295810106508,197.5,116.41755716630409,390,116.41755716630409" stroke="#8c564b" stroke-width="1"/><title>ARAUCA → Abril: 12574</title></g><g style="mix-blend-mode: multiply;"><path d="M5,155.358934058203C197.5,155.358934058203,197.5,134.27583524503711,390,134.27583524503711" stroke="#e377c2" stroke-width="2.54141133150347"/><title>ATLANTICO → Abril: 58186</title></g><g style="mix-blend-mode: multiply;"><path d="M5,331.96110563142133C197.5,331.96110563142133,197.5,175.7284746192453,390,175.7284746192453" stroke="#7f7f7f" stroke-width="5.14480084812713"/><title>BARRANQUILLA → Abril: 117791</title></g><g style="mix-blend-mode: multiply;"><path d="M5,520.8588127989101C197.5,520.8588127989101,197.5,236.23691630793897,390,236.23691630793897" stroke="#bcbd22" stroke-width="26.308058004854956"/><title>BOGOTA D.C. → Abril: 602327</title></g><g style="mix-blend-mode: multiply;"><path d="M5,143.1420788745566C197.5,143.1420788745566,197.5,131.9148551205326,390,131.9148551205326" stroke="#17becf" stroke-width="2.1805489175055723"/><title>BOLIVAR → Abril: 49924</title></g><g style="mix-blend-mode: multiply;"><path d="M5,206.61190343676472C197.5,206.61190343676472,197.5,146.38082122405606,390,146.38082122405606" stroke="#cccccc" stroke-width="3.547082728538279"/><title>CARTAGENA → Abril: 81211</title></g><g style="mix-blend-mode: multiply;"><path d="M5,249.4261973140385C197.5,249.4261973140385,197.5,155.74653739476076,390,155.74653739476076" stroke="#cccccc" stroke-width="3.084321015114444"/><title>BOYACA → Abril: 70616</title></g><g style="mix-blend-mode: multiply;"><path d="M5,234.66865147545977C197.5,234.66865147545977,197.5,152.63655592597604,390,152.63655592597604" stroke="#cccccc" stroke-width="3.1356419224549823"/><title>CALDAS → Abril: 71791</title></g><g style="mix-blend-mode: multiply;"><path d="M5,55.70783433305374C197.5,55.70783433305374,197.5,118.17275403603448,390,118.17275403603448" stroke="#cccccc" stroke-width="1"/><title>CAQUETA → Abril: 19809</title></g><g style="mix-blend-mode: multiply;"><path d="M5,63.090325561273325C197.5,63.090325561273325,197.5,119.00019993315178,390,119.00019993315178" stroke="#cccccc" stroke-width="1"/><title>CASANARE → Abril: 18080</title></g><g style="mix-blend-mode: multiply;"><path d="M5,193.55133253643984C197.5,193.55133253643984,197.5,142.81644225780983,390,142.81644225780983" stroke="#cccccc" stroke-width="3.5816752039541995"/><title>CAUCA → Abril: 82003</title></g><g style="mix-blend-mode: multiply;"><path d="M5,180.17934200263582C197.5,180.17934200263582,197.5,139.66861434969695,390,139.66861434969695" stroke="#cccccc" stroke-width="2.7139806122715275"/><title>CESAR → Abril: 62137</title></g><g style="mix-blend-mode: multiply;"><path d="M5,281.3508165101762C197.5,281.3508165101762,197.5,163.61722093792565,390,163.61722093792565" stroke="#cccccc" stroke-width="4.425871371680096"/><title>CORDOBA → Abril: 101331</title></g><g style="mix-blend-mode: multiply;"><path d="M5,352.8105305260579C197.5,352.8105305260579,197.5,181.04562636130072,390,181.04562636130072" stroke="#cccccc" stroke-width="5.489502635983753"/><title>CUNDINAMARCA → Abril: 125683</title></g><g style="mix-blend-mode: multiply;"><path d="M5,167.95396973223924C197.5,167.95396973223924,197.5,136.929082477175,390,136.929082477175" stroke="#cccccc" stroke-width="2.765083132772319"/><title>HUILA → Abril: 63307</title></g><g style="mix-blend-mode: multiply;"><path d="M5,89.06550906354528C197.5,89.06550906354528,197.5,123.27125687413523,390,123.27125687413523" stroke="#cccccc" stroke-width="1.6182901598930166"/><title>LA_GUAJIRA → Abril: 37051</title></g><g style="mix-blend-mode: multiply;"><path d="M5,79.88982165547931C197.5,79.88982165547931,197.5,121.62239255667765,390,121.62239255667765" stroke="#cccccc" stroke-width="1.679438475022169"/><title>MAGDALENA → Abril: 38451</title></g><g style="mix-blend-mode: multiply;"><path d="M5,70.82631956699134C197.5,70.82631956699134,197.5,120.08885832929043,390,120.08885832929043" stroke="#cccccc" stroke-width="1.3876299797522642"/><title>SANTA MARTA → Abril: 31770</title></g><g style="mix-blend-mode: multiply;"><path d="M5,119.83434921431521C197.5,119.83434921431521,197.5,127.01292227688806,390,127.01292227688806" stroke="#cccccc" stroke-width="2.0874724464054126"/><title>META → Abril: 47793</title></g><g style="mix-blend-mode: multiply;"><path d="M5,313.5872484361046C197.5,313.5872484361046,197.5,171.40810592984698,390,171.40810592984698" stroke="#cccccc" stroke-width="3.495936530669538"/><title>NARIÑO → Abril: 80040</title></g><g style="mix-blend-mode: multiply;"><path d="M5,265.3038492536794C197.5,265.3038492536794,197.5,159.34649157720182,390,159.34649157720182" stroke="#cccccc" stroke-width="4.115587349767598"/><title>NORTE DE SANTANDER → Abril: 94227</title></g><g style="mix-blend-mode: multiply;"><path d="M5,35.209377836640336C197.5,35.209377836640336,197.5,116.9662977785363,390,116.9662977785363" stroke="#cccccc" stroke-width="1"/><title>PUTUMAYO → Abril: 12553</title></g><g style="mix-blend-mode: multiply;"><path d="M5,109.01903525211293C197.5,109.01903525211293,197.5,125.02479400388356,390,125.02479400388356" stroke="#cccccc" stroke-width="1.888784099603617"/><title>QUINDIO → Abril: 43244</title></g><g style="mix-blend-mode: multiply;"><path d="M5,220.26740376592826C197.5,220.26740376592826,197.5,149.61154877653686,390,149.61154877653686" stroke="#cccccc" stroke-width="2.91437237642335"/><title>RISARALDA → Abril: 66725</title></g><g style="mix-blend-mode: multiply;"><path d="M5,376.8582962048408C197.5,376.8582962048408,197.5,186.85648523197213,390,186.85648523197213" stroke="#cccccc" stroke-width="6.1322151053590925"/><title>SANTANDER → Abril: 140398</title></g><g style="mix-blend-mode: multiply;"><path d="M5,131.5748808617895C197.5,131.5748808617895,197.5,129.4406195809353,390,129.4406195809353" stroke="#cccccc" stroke-width="2.76792216168903"/><title>SUCRE → Abril: 63372</title></g><g style="mix-blend-mode: multiply;"><path d="M5,296.85943836801266C197.5,296.85943836801266,197.5,167.74514714413897,390,167.74514714413897" stroke="#cccccc" stroke-width="3.829981040746507"/><title>TOLIMA → Abril: 87688</title></g><g style="mix-blend-mode: multiply;"><path d="M5,405.86575804638125C197.5,405.86575804638125,197.5,196.5581240395756,390,196.5581240395756" stroke="#cccccc" stroke-width="13.271062509847882"/><title>VALLE_DEL_CAUCA → Abril: 303843</title></g><g style="mix-blend-mode: multiply;"><path d="M5,41.62365101084174C197.5,41.62365101084174,197.5,117.49029516182519,390,117.49029516182519" stroke="#cccccc" stroke-width="1"/><title>CHOCO → Abril: 11441</title></g><g style="mix-blend-mode: multiply;"><path d="M5,5.3187355926107065C197.5,5.3187355926107065,197.5,115.66414440786102,390,115.66414440786102" stroke="#cccccc" stroke-width="1"/><title>GUAVIARE → Abril: 1991</title></g><g style="mix-blend-mode: multiply;"><path d="M5,10.61082799077226C197.5,10.61082799077226,197.5,115.7455371830347,390,115.7455371830347" stroke="#cccccc" stroke-width="1"/><title>SAN ANDRES, PROVIDENCIA Y SANTA CATALINA → Abril: 1736</title></g><g style="mix-blend-mode: multiply;"><path d="M5,16.440152014711384C197.5,16.440152014711384,197.5,115.96320334621052,390,115.96320334621052" stroke="#cccccc" stroke-width="1"/><title>BUENAVENTURA → Abril: 8231</title></g><g style="mix-blend-mode: multiply;"><path d="M5,0.04998874761808203C197.5,0.04998874761808203,197.5,115.59120320338552,390,115.59120320338552" stroke="#cccccc" stroke-width="1"/><title>VICHADA → Abril: 1349</title></g><g style="mix-blend-mode: multiply;"><path d="M395,89.39481676306808C587.5,89.39481676306808,587.5,144.92079600692765,780,144.92079600692765" stroke="#ff7f0e" stroke-width="8.789633526136155"/><title>Febrero → PFIZER: 201240</title></g><g style="mix-blend-mode: multiply;"><path d="M395,102.17568817241991C587.5,102.17568817241991,587.5,280.033054486097,780,280.033054486097" stroke="#ff7f0e" stroke-width="16.7721092925675"/><title>Febrero → SINOVAC: 384000</title></g><g style="mix-blend-mode: multiply;"><path d="M395,287.67047904572814C587.5,287.67047904572814,587.5,244.05968577846335,780,244.05968577846335" stroke="#2ca02c" stroke-width="45.17462812269977"/><title>Marzo → PFIZER: 1034280</title></g><g style="mix-blend-mode: multiply;"><path d="M395,402.628896553539C587.5,402.628896553539,587.5,402.62889655353905,780,402.62889655353905" stroke="#2ca02c" stroke-width="184.74220689292198"/><title>Marzo → SINOVAC: 4229701</title></g><g style="mix-blend-mode: multiply;"><path d="M395,259.73705514737236C587.5,259.73705514737236,587.5,130.1798694068537,780,130.1798694068537" stroke="#2ca02c" stroke-width="10.69221967401178"/><title>Marzo → ASTRAZENECA: 244800</title></g><g style="mix-blend-mode: multiply;"><path d="M395,191.47388186211032C587.5,191.47388186211032,587.5,185.3939922435546,780,185.3939922435546" stroke="#1f77b4" stroke-width="72.15675894711774"/><title>Abril → PFIZER: 1652040</title></g><g style="mix-blend-mode: multiply;"><path d="M395,238.47160332301783C587.5,238.47160332301783,587.5,299.33845111972937,780,299.33845111972937" stroke="#1f77b4" stroke-width="21.838683974697265"/><title>Abril → SINOVAC: 500000</title></g><g style="mix-blend-mode: multiply;"><path d="M395,135.47862260362754C587.5,135.47862260362754,587.5,104.9168797849239,780,104.9168797849239" stroke="#1f77b4" stroke-width="39.83375956984781"/><title>Abril → ASTRAZENECA: 912000</title></g></g><g><text x="9" y="0.10810148567475153" text-anchor="start"><tspan alignment-baseline="middle" x="9" style="font-family: Arial, sans-serif; font-size: 10px; fill: black; font-weight: bold;">VICHADA</tspan></text><text x="9" y="5.387309060291244" text-anchor="start"><tspan alignment-baseline="middle" x="9" style="font-family: Arial, sans-serif; font-size: 10px; fill: black; font-weight: bold;">GUAVIARE</tspan></text><text x="9" y="10.883549476248277" text-anchor="start"><tspan alignment-baseline="middle" x="9" style="font-family: Arial, sans-serif; font-size: 10px; fill: black; font-weight: bold;">SAN ANDRES, PROVIDENCIA Y SANTA CATALINA</tspan></text><text x="9" y="16.707566699981555" text-anchor="start"><tspan alignment-baseline="middle" x="9" style="font-family: Arial, sans-serif; font-size: 10px; fill: black; font-weight: bold;">BUENAVENTURA</tspan></text><text x="9" y="22.857788346244888" text-anchor="start"><tspan alignment-baseline="middle" x="9" style="font-family: Arial, sans-serif; font-size: 10px; fill: black; font-weight: bold;">ARAUCA</tspan></text><text x="9" y="29.161907198477934" text-anchor="start"><tspan alignment-baseline="middle" x="9" style="font-family: Arial, sans-serif; font-size: 10px; fill: black; font-weight: bold;">VAUPES</tspan></text><text x="9" y="35.53986264122943" text-anchor="start"><tspan alignment-baseline="middle" x="9" style="font-family: Arial, sans-serif; font-size: 10px; fill: black; font-weight: bold;">PUTUMAYO</tspan></text><text x="9" y="42.0894046239701" text-anchor="start"><tspan alignment-baseline="middle" x="9" style="font-family: Arial, sans-serif; font-size: 10px; fill: black; font-weight: bold;">CHOCO</tspan></text><text x="9" y="49.00544340117415" text-anchor="start"><tspan alignment-baseline="middle" x="9" style="font-family: Arial, sans-serif; font-size: 10px; fill: black; font-weight: bold;">GUAINIA</tspan></text><text x="9" y="56.2965834143276" text-anchor="start"><tspan alignment-baseline="middle" x="9" style="font-family: Arial, sans-serif; font-size: 10px; fill: black; font-weight: bold;">CAQUETA</tspan></text><text x="9" y="63.722380752869014" text-anchor="start"><tspan alignment-baseline="middle" x="9" style="font-family: Arial, sans-serif; font-size: 10px; fill: black; font-weight: bold;">CASANARE</tspan></text><text x="9" y="71.85902725478684" text-anchor="start"><tspan alignment-baseline="middle" x="9" style="font-family: Arial, sans-serif; font-size: 10px; fill: black; font-weight: bold;">SANTA MARTA</tspan></text><text x="9" y="80.83425738264907" text-anchor="start"><tspan alignment-baseline="middle" x="9" style="font-family: Arial, sans-serif; font-size: 10px; fill: black; font-weight: bold;">MAGDALENA</tspan></text><text x="9" y="90.24671980236872" text-anchor="start"><tspan alignment-baseline="middle" x="9" style="font-family: Arial, sans-serif; font-size: 10px; fill: black; font-weight: bold;">LA_GUAJIRA</tspan></text><text x="9" y="100.20084710071276" text-anchor="start"><tspan alignment-baseline="middle" x="9" style="font-family: Arial, sans-serif; font-size: 10px; fill: black; font-weight: bold;">AMAZONAS</tspan></text><text x="9" y="110.58071954314354" text-anchor="start"><tspan alignment-baseline="middle" x="9" style="font-family: Arial, sans-serif; font-size: 10px; fill: black; font-weight: bold;">QUINDIO</tspan></text><text x="9" y="121.53180460361651" text-anchor="start"><tspan alignment-baseline="middle" x="9" style="font-family: Arial, sans-serif; font-size: 10px; fill: black; font-weight: bold;">META</tspan></text><text x="9" y="133.1919698940639" text-anchor="start"><tspan alignment-baseline="middle" x="9" style="font-family: Arial, sans-serif; font-size: 10px; fill: black; font-weight: bold;">SUCRE</tspan></text><text x="9" y="145.20692644436423" text-anchor="start"><tspan alignment-baseline="middle" x="9" style="font-family: Arial, sans-serif; font-size: 10px; fill: black; font-weight: bold;">BOLIVAR</tspan></text><text x="9" y="157.34946458644475" text-anchor="start"><tspan alignment-baseline="middle" x="9" style="font-family: Arial, sans-serif; font-size: 10px; fill: black; font-weight: bold;">ATLANTICO</tspan></text><text x="9" y="169.67463964260565" text-anchor="start"><tspan alignment-baseline="middle" x="9" style="font-family: Arial, sans-serif; font-size: 10px; fill: black; font-weight: bold;">HUILA</tspan></text><text x="9" y="182.29223467718776" text-anchor="start"><tspan alignment-baseline="middle" x="9" style="font-family: Arial, sans-serif; font-size: 10px; fill: black; font-weight: bold;">CESAR</tspan></text><text x="9" y="195.320549841282" text-anchor="start"><tspan alignment-baseline="middle" x="9" style="font-family: Arial, sans-serif; font-size: 10px; fill: black; font-weight: bold;">CAUCA</tspan></text><text x="9" y="208.93979795504757" text-anchor="start"><tspan alignment-baseline="middle" x="9" style="font-family: Arial, sans-serif; font-size: 10px; fill: black; font-weight: bold;">CARTAGENA</tspan></text><text x="9" y="223.02879616110886" text-anchor="start"><tspan alignment-baseline="middle" x="9" style="font-family: Arial, sans-serif; font-size: 10px; fill: black; font-weight: bold;">RISARALDA</tspan></text><text x="9" y="237.39296178525134" text-anchor="start"><tspan alignment-baseline="middle" x="9" style="font-family: Arial, sans-serif; font-size: 10px; fill: black; font-weight: bold;">CALDAS</tspan></text><text x="9" y="252.3577785734339" text-anchor="start"><tspan alignment-baseline="middle" x="9" style="font-family: Arial, sans-serif; font-size: 10px; fill: black; font-weight: bold;">BOYACA</tspan></text><text x="9" y="267.9608964168289" text-anchor="start"><tspan alignment-baseline="middle" x="9" style="font-family: Arial, sans-serif; font-size: 10px; fill: black; font-weight: bold;">NORTE DE SANTANDER</tspan></text><text x="9" y="283.79995940188655" text-anchor="start"><tspan alignment-baseline="middle" x="9" style="font-family: Arial, sans-serif; font-size: 10px; fill: black; font-weight: bold;">CORDOBA</tspan></text><text x="9" y="300.0959313330628" text-anchor="start"><tspan alignment-baseline="middle" x="9" style="font-family: Arial, sans-serif; font-size: 10px; fill: black; font-weight: bold;">TOLIMA</tspan></text><text x="9" y="317.2949983626447" text-anchor="start"><tspan alignment-baseline="middle" x="9" style="font-family: Arial, sans-serif; font-size: 10px; fill: black; font-weight: bold;">NARIÑO</tspan></text><text x="9" y="336.2707078496202" text-anchor="start"><tspan alignment-baseline="middle" x="9" style="font-family: Arial, sans-serif; font-size: 10px; fill: black; font-weight: bold;">BARRANQUILLA</tspan></text><text x="9" y="358.33879682609677" text-anchor="start"><tspan alignment-baseline="middle" x="9" style="font-family: Arial, sans-serif; font-size: 10px; fill: black; font-weight: bold;">CUNDINAMARCA</tspan></text><text x="9" y="382.33045892574864" text-anchor="start"><tspan alignment-baseline="middle" x="9" style="font-family: Arial, sans-serif; font-size: 10px; fill: black; font-weight: bold;">SANTANDER</tspan></text><text x="399" y="97.78087140935182" text-anchor="start"><tspan alignment-baseline="middle" x="399" style="font-family: Arial, sans-serif; font-size: 10px; fill: black; font-weight: bold;">Febrero</tspan></text><text x="9" y="417.24740313479026" text-anchor="start"><tspan alignment-baseline="middle" x="9" style="font-family: Arial, sans-serif; font-size: 10px; fill: black; font-weight: bold;">VALLE_DEL_CAUCA</tspan></text><text x="776" y="110.26298962192979" text-anchor="end"><tspan alignment-baseline="middle" x="776" style="font-family: Arial, sans-serif; font-size: 10px; fill: black; font-weight: bold;">ASTRAZENECA</tspan></text><text x="9" y="470.86944223236776" text-anchor="start"><tspan alignment-baseline="middle" x="9" style="font-family: Arial, sans-serif; font-size: 10px; fill: black; font-weight: bold;">ANTIOQUIA</tspan></text><text x="9" y="542.0692196743394" text-anchor="start"><tspan alignment-baseline="middle" x="9" style="font-family: Arial, sans-serif; font-size: 10px; fill: black; font-weight: bold;">BOGOTA D.C.</tspan></text><text x="776" y="203.58648954183641" text-anchor="end"><tspan alignment-baseline="middle" x="776" style="font-family: Arial, sans-serif; font-size: 10px; fill: black; font-weight: bold;">PFIZER</tspan></text><text x="399" y="182.47634406453506" text-anchor="start"><tspan alignment-baseline="middle" x="399" style="font-family: Arial, sans-serif; font-size: 10px; fill: black; font-weight: bold;">Abril</tspan></text><text x="776" y="383.3234999199066" text-anchor="end"><tspan alignment-baseline="middle" x="776" style="font-family: Arial, sans-serif; font-size: 10px; fill: black; font-weight: bold;">SINOVAC</tspan></text><text x="399" y="374.69547265518327" text-anchor="start"><tspan alignment-baseline="middle" x="399" style="font-family: Arial, sans-serif; font-size: 10px; fill: black; font-weight: bold;">Marzo</tspan></text></g><g><text x="2.5" y="-4" text-anchor="middle" style="font-family: Arial, sans-serif; font-size: 12px; fill: rgb(123, 123, 123); font-weight: bold;">Nom_Territorio</text><text x="392.5" y="81" text-anchor="middle" style="font-family: Arial, sans-serif; font-size: 12px; fill: rgb(123, 123, 123); font-weight: bold;">Mes</text><text x="782.5" y="81" text-anchor="middle" style="font-family: Arial, sans-serif; font-size: 12px; fill: rgb(123, 123, 123); font-weight: bold;">Laboratorio_Vacuna</text></g></g></svg>