<svg xmlns="http://www.w3.org/2000/svg" width="805" height="900"><rect width="805" height="900" x="0" y="0" fill="#FFFFFF" id="backgorund"/><g transform="translate(100,100)" id="viz"><g fill="none" font-size="10" font-family="sans-serif" text-anchor="middle"><path class="domain" stroke="currentColor" d="M0.5,0.5H655.5"/><g class="tick" opacity="1" transform="translate(109.8374295954941,0)"><line stroke="currentColor" y2="-6"/><text fill="currentColor" y="-9" dy="3.4641016151377544" dx="3.4641016151377544" text-anchor="start" transform="rotate(-45)">Febrero</text></g><g class="tick" opacity="1" transform="translate(327.5,0)"><line stroke="currentColor" y2="-6"/><text fill="currentColor" y="-9" dy="3.4641016151377544" dx="3.4641016151377544" text-anchor="start" transform="rotate(-45)">Marzo</text></g><g class="tick" opacity="1" transform="translate(545.1625704045059,0)"><line stroke="currentColor" y2="-6"/><text fill="currentColor" y="-9" dy="3.4641016151377544" dx="3.4641016151377544" text-anchor="start" transform="rotate(-45)">Abril</text></g></g><g fill="none" font-size="10" font-family="sans-serif" text-anchor="end"><path class="domain" stroke="currentColor" d="M0.5,0.5V655.5"/><g class="tick" opacity="1" transform="translate(0,109.8374295954941)"><line stroke="currentColor" x2="-6"/><text fill="currentColor" x="-9" dy="0.32em">PFIZER</text></g><g class="tick" opacity="1" transform="translate(0,327.5)"><line stroke="currentColor" x2="-6"/><text fill="currentColor" x="-9" dy="0.32em">SINOVAC</text></g><g class="tick" opacity="1" transform="translate(0,545.1625704045059)"><line stroke="currentColor" x2="-6"/><text fill="currentColor" x="-9" dy="0.32em">ASTRAZENECA</text></g></g><text dx="-9" dy="-9" style="text-anchor: end; font-family: Arial, sans-serif; font-size: 12px; fill: rgb(123, 123, 123); font-weight: bold;">Laboratorio_Vacuna</text><text x="469.51890270786754" y="469.51890270786754" dx="3.4641016151377544" dy="-3.4641016151377544" transform="rotate(-45)" style="text-anchor: start; font-family: Arial, sans-serif; font-size: 12px; fill: rgb(123, 123, 123); font-weight: bold;">Mes</text><rect x="86.58527099987161" y="86.58527099987161" rx="0" ry="0" width="47.18736890655475" height="47.18736890655475" style="fill: rgb(255, 127, 14);"/><rect x="77.58746478703532" y="295.2500351915412" rx="0" ry="0" width="65.18298133222736" height="65.18298133222736" style="fill: rgb(44, 160, 44);"/><rect x="274.35336370636793" y="56.69079330186203" rx="0" ry="0" width="106.97632430257391" height="106.97632430257391" style="fill: rgb(255, 127, 14);"/><rect x="219.67485919098823" y="219.67485919098823" rx="0" ry="0" width="216.33333333333334" height="216.33333333333334" style="fill: rgb(44, 160, 44);"/><rect x="301.8193073569659" y="519.4818777614718" rx="0" ry="0" width="52.04443700137802" height="52.04443700137802" style="fill: rgb(31, 119, 180);"/><rect x="477.9037544840014" y="42.5786136749896" rx="0" ry="0" width="135.20068355631878" height="135.20068355631878" style="fill: rgb(255, 127, 14);"/><rect x="508.3143158026826" y="290.6517453981767" rx="0" ry="0" width="74.37956091895639" height="74.37956091895639" style="fill: rgb(44, 160, 44);"/><rect x="495.27723590220484" y="495.27723590220484" rx="0" ry="0" width="100.45372071991193" height="100.45372071991193" style="fill: rgb(31, 119, 180);"/><g id="labels"><g transform="translate(110.17895545314899,110.17895545314899)"><text x="0" y="0" text-anchor="middle" dominant-baseline="text-before-edge" transform="translate(0,-5.5)"><tspan x="0" y="0" dy="0" style="font-family: Arial, sans-serif; font-size: 10px; fill: black; font-weight: bold;">201240</tspan></text></g><g transform="translate(110.17895545314899,327.8415258576549)"><text x="0" y="0" text-anchor="middle" dominant-baseline="text-before-edge" transform="translate(0,-5.5)"><tspan x="0" y="0" dy="0" style="font-family: Arial, sans-serif; font-size: 10px; fill: black; font-weight: bold;">384000</tspan></text></g><g transform="translate(327.8415258576549,110.17895545314899)"><text x="0" y="0" text-anchor="middle" dominant-baseline="text-before-edge" transform="translate(0,-5.5)"><tspan x="0" y="0" dy="0" style="font-family: Arial, sans-serif; font-size: 10px; fill: black; font-weight: bold;">1034280</tspan></text></g><g transform="translate(327.8415258576549,327.8415258576549)"><text x="0" y="0" text-anchor="middle" dominant-baseline="text-before-edge" transform="translate(0,-5.5)"><tspan x="0" y="0" dy="0" style="font-family: Arial, sans-serif; font-size: 10px; fill: black; font-weight: bold;">4229701</tspan></text></g><g transform="translate(327.8415258576549,545.5040962621608)"><text x="0" y="0" text-anchor="middle" dominant-baseline="text-before-edge" transform="translate(0,-5.5)"><tspan x="0" y="0" dy="0" style="font-family: Arial, sans-serif; font-size: 10px; fill: black; font-weight: bold;">244800</tspan></text></g><g transform="translate(545.5040962621608,110.17895545314899)"><text x="0" y="0" text-anchor="middle" dominant-baseline="text-before-edge" transform="translate(0,-5.5)"><tspan x="0" y="0" dy="0" style="font-family: Arial, sans-serif; font-size: 10px; fill: black; font-weight: bold;">1652040</tspan></text></g><g transform="translate(545.5040962621608,327.8415258576549)"><text x="0" y="0" text-anchor="middle" dominant-baseline="text-before-edge" transform="translate(0,-5.5)"><tspan x="0" y="0" dy="0" style="font-family: Arial, sans-serif; font-size: 10px; fill: black; font-weight: bold;">500000</tspan></text></g><g transform="translate(545.5040962621608,545.5040962621608)"><text x="0" y="0" text-anchor="middle" dominant-baseline="text-before-edge" transform="translate(0,-5.5)"><tspan x="0" y="0" dy="0" style="font-family: Arial, sans-serif; font-size: 10px; fill: black; font-weight: bold;">912000</tspan></text></g></g></g></svg>